<svg width="49" height="62" viewBox="0 0 49 62" fill="none" xmlns="http://www.w3.org/2000/svg">
<g filter="url(#filter0_d_1_846)">
<path d="M11.4169 3.864C12.0742 2.2721 12.4028 1.47615 13.0822 1.05525C13.7615 0.634342 14.6205 0.694411 16.3385 0.814549L33.9136 2.04352C35.6316 2.16365 36.4907 2.22372 37.1048 2.73508C37.7189 3.24643 37.9336 4.08037 38.3629 5.74825L39.4248 9.87349L9.79128 7.80132L11.4169 3.864Z" fill="#F2EDF2"/>
<path opacity="0.5" d="M16.483 0.824644L22.6566 1.25635L19.6691 8.49204L13.4955 8.06034L16.483 0.824644Z" fill="white"/>
<g opacity="0.06">
<path d="M34.4859 9.52813L39.4248 9.8735L38.3629 5.74825C37.9336 4.08037 37.7189 3.24643 37.1048 2.73508C36.4907 2.22373 35.6316 2.16366 33.9136 2.04352L32.5344 1.94708L34.4859 9.52813Z" fill="black" style="mix-blend-mode:soft-light"/>
</g>
<rect x="6.08709" y="7.5423" width="37.1323" height="4.95098" rx="1.23774" transform="rotate(4 6.08709 7.5423)" fill="#F2EDF2"/>
<path opacity="0.5" d="M11.026 7.88765L17.1997 8.31935L16.8543 13.2583L10.6806 12.8266L11.026 7.88765Z" fill="white"/>
<g opacity="0.06">
<path d="M38.19 9.78716L40.6595 9.95984C41.8236 10.0412 42.4057 10.0819 42.742 10.4689C42.742 10.4689 42.742 10.4689 42.742 10.4689C43.0784 10.8558 43.0377 11.4379 42.9563 12.602C42.8749 13.7661 42.8342 14.3481 42.4472 14.6845C42.4472 14.6845 42.4472 14.6845 42.4472 14.6845C42.0603 15.0209 41.4783 14.9802 40.3141 14.8988L37.8447 14.7261L38.19 9.78716Z" fill="black" style="mix-blend-mode:soft-light"/>
</g>
<path d="M9.44592 12.7402L39.0794 14.8124L33.5408 47.1789C33.1816 49.2778 33.002 50.3272 32.2518 50.9164C31.5017 51.5055 30.4396 51.4312 28.3154 51.2827L15.0295 50.3537C12.9053 50.2051 11.8432 50.1309 11.1823 49.4431C10.5215 48.7553 10.4897 47.691 10.4261 45.5625L9.44592 12.7402Z" fill="#E3DFE3"/>
<path opacity="0.5" d="M13.1501 12.9993L19.3238 13.431L20.4377 50.7318L14.2641 50.3001L13.1501 12.9993Z" fill="white"/>
<g opacity="0.06">
<path d="M39.0794 14.8124L34.1405 14.4671L27.8461 51.2499L28.3154 51.2827C30.4396 51.4313 31.5017 51.5055 32.2519 50.9164C33.002 50.3273 33.1816 49.2778 33.5408 47.1789L39.0794 14.8124Z" fill="black" style="mix-blend-mode:soft-light"/>
</g>
<g opacity="0.06">
<path fill-rule="evenodd" clip-rule="evenodd" d="M39.0794 14.8124L9.44592 12.7402L9.48305 13.9836L38.8696 16.0385L39.0794 14.8124Z" fill="black" style="mix-blend-mode:soft-light"/>
</g>
<path fill-rule="evenodd" clip-rule="evenodd" d="M10.2628 40.0942L10.1886 37.6075L34.8831 39.3343L34.4635 41.7865L10.2628 40.0942Z" fill="#D27F55" fill-opacity="0.3"/>
<path fill-rule="evenodd" clip-rule="evenodd" d="M40.0614 14.8811L8.46397 12.6716C8.46397 12.6716 8.46397 12.6716 8.46397 12.6716C8.46397 12.6716 8.46397 12.6716 8.46397 12.6716L40.0614 14.8811ZM38.9813 21.2525C39.1946 19.9943 39.3012 19.3652 38.962 18.934C38.6228 18.5028 37.9863 18.4583 36.7133 18.3693L11.294 16.5918C10.021 16.5027 9.38446 16.4582 8.98855 16.838C8.59265 17.2178 8.6107 17.8557 8.6468 19.1313L9.13943 36.5364C9.1696 37.6023 9.18468 38.1352 9.51523 38.4797C9.84577 38.8243 10.3776 38.8615 11.4412 38.9359L33.4578 40.4754C34.5214 40.5498 35.0533 40.587 35.4285 40.2918C35.8038 39.9966 35.8929 39.4709 36.0711 38.4197L38.9813 21.2525Z" fill="#E59A61"/>
<g opacity="0.4">
<path fill-rule="evenodd" clip-rule="evenodd" d="M10.792 16.5567L16.9657 16.9884L17.6341 39.3689L11.4604 38.9372L10.792 16.5567Z" fill="white" style="mix-blend-mode:soft-light"/>
</g>
<path style="mix-blend-mode:soft-light" fill-rule="evenodd" clip-rule="evenodd" d="M38.962 18.934C39.3012 19.3652 39.1946 19.9943 38.9813 21.2525L36.0711 38.4197C35.8929 39.471 35.8038 39.9966 35.4285 40.2918C35.0631 40.5793 34.5491 40.5515 33.5401 40.4812L33.4386 40.4741L37.215 18.4055C38.16 18.4785 38.6707 18.5636 38.962 18.934Z" fill="black" fill-opacity="0.4"/>
<path fill-rule="evenodd" clip-rule="evenodd" d="M33.4929 23.7275C33.152 23.7037 32.8563 23.9608 32.8324 24.3017L32.1417 34.1795C32.1178 34.5205 32.3749 34.8162 32.7159 34.8401C33.0568 34.8639 33.3526 34.6069 33.3764 34.2659L34.0671 24.3881C34.091 24.0471 33.8339 23.7514 33.4929 23.7275ZM30.363 24.129C30.3868 23.7881 30.6825 23.531 31.0235 23.5548C31.3644 23.5787 31.6215 23.8744 31.5977 24.2154L30.907 34.0932C30.8831 34.4342 30.5874 34.6912 30.2464 34.6674C29.9055 34.6436 29.6484 34.3478 29.6722 34.0069L30.363 24.129ZM18.6762 22.6914C18.3352 22.6676 18.0395 22.9247 18.0157 23.2656L17.3249 33.1435C17.3011 33.4844 17.5582 33.7802 17.8991 33.804C18.2401 33.8278 18.5358 33.5708 18.5597 33.2298L19.2504 23.352C19.2742 23.011 19.0172 22.7153 18.6762 22.6914ZM15.5462 23.093C15.57 22.752 15.8658 22.4949 16.2067 22.5188C16.5477 22.5426 16.8048 22.8383 16.7809 23.1793L16.0902 33.0571C16.0664 33.3981 15.7706 33.6552 15.4297 33.6313C15.0887 33.6075 14.8316 33.3117 14.8555 32.9708L15.5462 23.093ZM13.0767 22.9203C13.1006 22.5793 13.3963 22.3222 13.7373 22.3461C14.0782 22.3699 14.3353 22.6657 14.3115 23.0066L13.6207 32.8845C13.5969 33.2254 13.3012 33.4825 12.9602 33.4586C12.6193 33.4348 12.3622 33.1391 12.386 32.7981L13.0767 22.9203ZM20.4851 23.4383C20.509 23.0974 20.8047 22.8403 21.1457 22.8641C21.4866 22.888 21.7437 23.1837 21.7198 23.5247L21.0291 33.4025C21.0053 33.7435 20.7095 34.0005 20.3686 33.9767C20.0276 33.9528 19.7706 33.6571 19.7944 33.3162L20.4851 23.4383ZM23.6151 23.0368C23.2742 23.013 22.9784 23.27 22.9546 23.611L22.2639 33.4888C22.24 33.8298 22.4971 34.1255 22.8381 34.1494C23.179 34.1732 23.4747 33.9161 23.4986 33.5752L24.1893 23.6973C24.2132 23.3564 23.9561 23.0606 23.6151 23.0368ZM25.424 23.7837C25.4479 23.4427 25.7436 23.1856 26.0846 23.2095C26.4255 23.2333 26.6826 23.5291 26.6588 23.87L25.968 33.7479C25.9442 34.0888 25.6485 34.3459 25.3075 34.322C24.9665 34.2982 24.7095 34.0025 24.7333 33.6615L25.424 23.7837ZM28.554 23.3822C28.2131 23.3583 27.9173 23.6154 27.8935 23.9564L27.2028 33.8342C27.1789 34.1752 27.436 34.4709 27.777 34.4947C28.1179 34.5186 28.4137 34.2615 28.4375 33.9205L29.1282 24.0427C29.1521 23.7017 28.895 23.406 28.554 23.3822Z" fill="#AB604B" style="mix-blend-mode:darken"/>
</g>
<defs>
<filter id="filter0_d_1_846" x="-1.79947" y="0.133926" width="50.3974" height="61.8813" filterUnits="userSpaceOnUse" color-interpolation-filters="sRGB">
<feFlood flood-opacity="0" result="BackgroundImageFix"/>
<feColorMatrix in="SourceAlpha" type="matrix" values="0 0 0 0 0 0 0 0 0 0 0 0 0 0 0 0 0 0 127 0" result="hardAlpha"/>
<feOffset dy="4.95098"/>
<feGaussianBlur stdDeviation="2.47549"/>
<feColorMatrix type="matrix" values="0 0 0 0 0 0 0 0 0 0 0 0 0 0 0 0 0 0 0.12 0"/>
<feBlend mode="darken" in2="BackgroundImageFix" result="effect1_dropShadow_1_846"/>
<feBlend mode="normal" in="SourceGraphic" in2="effect1_dropShadow_1_846" result="shape"/>
</filter>
</defs>
</svg>
