<svg width="34" height="46" viewBox="0 0 34 46" fill="none" xmlns="http://www.w3.org/2000/svg">
<g clip-path="url(#clip0_1_901)">
<mask id="path-1-inside-1_1_901" fill="white">
<path fill-rule="evenodd" clip-rule="evenodd" d="M31.887 -1.19127H1.53731V0.0732999H31.887V-1.19127ZM28.4798 40.9596L31.887 0.0733032H1.53731L4.9445 40.9596C5.12795 43.1611 5.21968 44.2618 5.94565 44.9298C6.67163 45.5978 7.77618 45.5978 9.98529 45.5978H23.439C25.6481 45.5978 26.7526 45.5978 27.4786 44.9298C28.2046 44.2618 28.2963 43.1611 28.4798 40.9596Z"/>
</mask>
<path fill-rule="evenodd" clip-rule="evenodd" d="M31.887 -1.19127H1.53731V0.0732999H31.887V-1.19127ZM28.4798 40.9596L31.887 0.0733032H1.53731L4.9445 40.9596C5.12795 43.1611 5.21968 44.2618 5.94565 44.9298C6.67163 45.5978 7.77618 45.5978 9.98529 45.5978H23.439C25.6481 45.5978 26.7526 45.5978 27.4786 44.9298C28.2046 44.2618 28.2963 43.1611 28.4798 40.9596Z" fill="#ECE8FF"/>
<path d="M1.53731 -1.19127V-2.45584H0.272742V-1.19127H1.53731ZM31.887 -1.19127H33.1515V-2.45584H31.887V-1.19127ZM1.53731 0.0732999H0.272742V1.33787H1.53731V0.0732999ZM31.887 0.0732999V1.33787H33.1515V0.0732999H31.887ZM31.887 0.0733032L33.1472 0.17832L33.2613 -1.19127L31.887 -1.19127V0.0733032ZM28.4798 40.9596L27.2196 40.8546L27.2196 40.8546L28.4798 40.9596ZM1.53731 0.0733032V-1.19127H0.162975L0.277107 0.17832L1.53731 0.0733032ZM4.9445 40.9596L3.6843 41.0646L3.6843 41.0646L4.9445 40.9596ZM5.94565 44.9298L5.0894 45.8604L5.0894 45.8604L5.94565 44.9298ZM27.4786 44.9298L28.3349 45.8604L28.3349 45.8604L27.4786 44.9298ZM1.53731 0.0732999H31.887V-2.45584H1.53731V0.0732999ZM2.80188 0.0732999V-1.19127H0.272742V0.0732999H2.80188ZM31.887 -1.19127H1.53731V1.33787H31.887V-1.19127ZM30.6224 -1.19127V0.0732999H33.1515V-1.19127H30.6224ZM30.6268 -0.0317135L27.2196 40.8546L29.74 41.0646L33.1472 0.17832L30.6268 -0.0317135ZM1.53731 1.33787H31.887V-1.19127H1.53731V1.33787ZM6.2047 40.8546L2.79751 -0.0317135L0.277107 0.17832L3.6843 41.0646L6.2047 40.8546ZM6.80191 43.9992C6.70559 43.9106 6.58548 43.7529 6.47782 43.2533C6.36252 42.7183 6.29926 41.9893 6.2047 40.8546L3.6843 41.0646C3.77319 42.1313 3.84753 43.0534 4.00545 43.7862C4.171 44.5543 4.45975 45.281 5.0894 45.8604L6.80191 43.9992ZM9.98529 44.3332C8.8466 44.3332 8.11486 44.3307 7.57214 44.2602C7.06537 44.1944 6.89822 44.0878 6.8019 43.9992L5.0894 45.8604C5.71906 46.4397 6.46718 46.6671 7.24646 46.7683C7.98978 46.8648 8.91488 46.8623 9.98529 46.8623V44.3332ZM23.439 44.3332H9.98529V46.8623H23.439V44.3332ZM26.6224 43.9992C26.526 44.0878 26.3589 44.1944 25.8521 44.2602C25.3094 44.3307 24.5777 44.3332 23.439 44.3332V46.8623C24.5094 46.8623 25.4345 46.8648 26.1778 46.7683C26.9571 46.6671 27.7052 46.4397 28.3349 45.8604L26.6224 43.9992ZM27.2196 40.8546C27.125 41.9893 27.0618 42.7183 26.9464 43.2533C26.8388 43.7529 26.7187 43.9106 26.6224 43.9992L28.3349 45.8604C28.9645 45.281 29.2533 44.5543 29.4188 43.7862C29.5767 43.0534 29.6511 42.1313 29.74 41.0646L27.2196 40.8546Z" fill="#CECCF1" mask="url(#path-1-inside-1_1_901)"/>
<path fill-rule="evenodd" clip-rule="evenodd" d="M2.06423 6.39615L4.94452 40.9596C5.12797 43.1611 5.2197 44.2618 5.94567 44.9298C6.67165 45.5978 7.7762 45.5978 9.98531 45.5978H23.439C25.6481 45.5978 26.7527 45.5978 27.4786 44.9298C28.2046 44.2618 28.2963 43.1611 28.4798 40.9596L31.3601 6.39615H2.06423Z" fill="#E59A61"/>
<path fill-rule="evenodd" clip-rule="evenodd" d="M9.12474 45.5978H15.4476L12.1808 6.39615H5.85794L9.12474 45.5978Z" fill="#F5BE80"/>
<path opacity="0.5" fill-rule="evenodd" clip-rule="evenodd" d="M11.6539 0.0733032H5.33101L5.85791 6.39615H12.1808L11.6539 0.0733032Z" fill="white"/>
<path fill-rule="evenodd" clip-rule="evenodd" d="M31.3601 6.39615H26.3018L23.035 45.5978H23.439C25.6481 45.5978 26.7526 45.5978 27.4786 44.9298C28.194 44.2715 28.2935 43.193 28.4718 41.055C28.4744 41.0234 28.4771 40.9916 28.4798 40.9596L31.3601 6.39615Z" fill="#C7754F"/>
<g opacity="0.06">
<path fill-rule="evenodd" clip-rule="evenodd" d="M26.8287 0.0733032H31.8869L31.36 6.39615H26.3018L26.8287 0.0733032Z" fill="black" style="mix-blend-mode:soft-light"/>
</g>
<g opacity="0.06">
<path fill-rule="evenodd" clip-rule="evenodd" d="M31.887 0.0733032H1.53731L1.64269 1.33787H31.7816L31.887 0.0733032Z" fill="black" style="mix-blend-mode:soft-light"/>
</g>
</g>
<defs>
<clipPath id="clip0_1_901">
<rect width="32.8788" height="45.5245" fill="white" transform="translate(0.272736 0.0733032)"/>
</clipPath>
</defs>
</svg>
